<svg width="120" height="40" viewBox="0 0 120 40" fill="none" xmlns="http://www.w3.org/2000/svg">
  <rect width="120" height="40" rx="4" fill="white"/>
  <path d="M15.5 10C12.4624 10 10 12.4624 10 15.5V24.5C10 27.5376 12.4624 30 15.5 30H24.5C27.5376 30 30 27.5376 30 24.5V15.5C30 12.4624 27.5376 10 24.5 10H15.5Z" fill="#FF6B6B"/>
  <path d="M35 15H40.5C43.5376 15 46 17.4624 46 20.5C46 23.5376 43.5376 26 40.5 26H35V15Z" fill="#4ECDC4"/>
  <path d="M51 15H56.5C59.5376 15 62 17.4624 62 20.5C62 23.5376 59.5376 26 56.5 26H51V15Z" fill="#FF6B6B"/>
  <path d="M67 15H78C79.1046 15 80 15.8954 80 17V24C80 25.1046 79.1046 26 78 26H67V15Z" fill="#4ECDC4"/>
  <path d="M85 15H96C97.1046 15 98 15.8954 98 17V24C98 25.1046 97.1046 26 96 26H85V15Z" fill="#FF6B6B"/>
  <path d="M103 15H108.5C111.538 15 114 17.4624 114 20.5C114 23.5376 111.538 26 108.5 26H103V15Z" fill="#4ECDC4"/>
</svg>